<?xml version="1.0" encoding="utf-8"?>
<!-- Generator: Adobe Illustrator 24.1.2, SVG Export Plug-In . SVG Version: 6.00 Build 0)  -->
<svg version="1.1" id="Layer_1" xmlns="http://www.w3.org/2000/svg" xmlns:xlink="http://www.w3.org/1999/xlink" x="0px" y="0px"
	 viewBox="0 0 1024 1024" style="enable-background:new 0 0 1024 1024;" xml:space="preserve">
<style type="text/css">
	.st0{fill:#FFFFFF;}
</style>
<g>
	<g>
		<path d="M680.35,628.95l-262.56-80.13c-18.96-5.79-29.68-25.92-23.89-44.88L441.8,347c5.79-18.96,25.92-29.68,44.88-23.89
			l262.56,80.13c18.96,5.79,29.68,25.92,23.89,44.88l-47.9,156.94C719.44,624.02,699.31,634.74,680.35,628.95z M485.33,327.54
			c-16.52-5.04-34.06,4.3-39.1,20.82l-47.9,156.94c-5.04,16.52,4.3,34.06,20.82,39.1l262.56,80.13c16.52,5.04,34.06-4.3,39.1-20.82
			l47.9-156.94c5.04-16.52-4.3-34.06-20.82-39.1L485.33,327.54z"/>
		<path d="M618.62,380.65l-37.27-11.38c-0.7-0.21-1.44,0.18-1.65,0.88l0,0c-0.21,0.7,0.18,1.44,0.88,1.65l37.27,11.38
			c0.7,0.21,1.43-0.18,1.65-0.87l0,0C619.71,381.61,619.32,380.87,618.62,380.65z"/>
		<path d="M458.75,348.04l-4.33,13.05c-0.21,0.7,0.18,1.44,0.88,1.65l0,0c0.7,0.21,1.44-0.18,1.65-0.88l4.33-13.06
			c2.07-6.77,9.24-10.59,16.01-8.52l85.79,26.18c0.7,0.21,1.44-0.18,1.65-0.88l0,0c0.21-0.7-0.18-1.44-0.88-1.65l-85.78-26.18
			C469.89,335.27,461.24,339.87,458.75,348.04z"/>
		<path d="M721.12,557.39c-0.7-0.21-1.44,0.18-1.65,0.88l-14.12,46.25c-1.85,6.07-8.29,9.5-14.37,7.64l-140.21-42.79
			c-0.7-0.21-1.44,0.18-1.65,0.88l0,0c-0.21,0.7,0.18,1.44,0.88,1.65l138.95,42.4c8.17,2.49,16.82-2.11,19.32-10.28L722,559.04
			C722.21,558.34,721.82,557.6,721.12,557.39L721.12,557.39z"/>
		<rect x="599.92" y="245.78" transform="matrix(0.2815 -0.9596 0.9596 0.2815 32.7768 877.3085)" width="4.63" height="341.97"/>
		<rect x="586.53" y="282.8" transform="matrix(0.2815 -0.9596 0.9596 0.2815 -12.3646 891.0479)" width="4.63" height="341.97"/>
	</g>
	<g>
		<path d="M559.77,466.48H285.26c-19.82,0-35.95,16.12-35.95,35.94v164.09c0,19.82,16.13,35.94,35.95,35.94h274.51
			c19.82,0,35.95-16.12,35.95-35.94V502.42C595.72,482.6,579.59,466.48,559.77,466.48z M591.1,666.51
			c0,17.27-14.05,31.32-31.33,31.32H285.26c-17.27,0-31.33-14.05-31.33-31.32V502.42c0-17.27,14.05-31.32,31.33-31.32h274.51
			c17.27,0,31.33,14.05,31.33,31.32V666.51z"/>
		<path class="st0" d="M591.1,502.42v164.09c0,17.27-14.05,31.32-31.33,31.32H285.26c-17.27,0-31.33-14.05-31.33-31.32V502.42
			c0-17.27,14.05-31.32,31.33-31.32h274.51C577.04,471.1,591.1,485.15,591.1,502.42z"/>
		<path d="M428.25,482.99h-38.97c-0.73,0-1.32,0.59-1.32,1.32l0,0c0,0.73,0.59,1.32,1.32,1.32h38.97c0.73,0,1.32-0.59,1.32-1.32l0,0
			C429.58,483.59,428.99,482.99,428.25,482.99z"/>
		<path d="M265.83,498.47v84.93c0,0.73,0.59,1.32,1.32,1.32l0,0c0.73,0,1.32-0.59,1.32-1.32v-84.93c0-7.08,5.74-12.83,12.83-12.83
			h89.7c0.73,0,1.32-0.59,1.32-1.32l0,0c0-0.73-0.59-1.32-1.32-1.32H281.3C272.76,482.99,265.83,489.92,265.83,498.47z"/>
		<path d="M577.88,622.11c-0.73,0-1.32,0.59-1.32,1.32v48.36c0,6.34-5.16,11.5-11.51,11.5H418.46c-0.73,0-1.32,0.59-1.32,1.32l0,0
			c0,0.73,0.59,1.32,1.32,1.32h145.27c8.55,0,15.47-6.93,15.47-15.47v-47.03C579.2,622.7,578.61,622.11,577.88,622.11L577.88,622.11
			z"/>
		<path d="M344.94,540.25H296.7c-4.55,0-8.24,3.69-8.24,8.24v28.37c0,4.55,3.69,8.24,8.24,8.24h48.24c4.54,0,8.23-3.69,8.23-8.24
			v-28.37C353.17,543.95,349.48,540.25,344.94,540.25z M293.08,548.49c0-2,1.62-3.61,3.61-3.61h22.76v8.92h-7.68
			c-1.65,0-2.98,1.33-2.98,2.97v4.97h-15.72V548.49z M329.02,555.12c0.91,0,1.66,0.74,1.66,1.65v11.81c0,0.91-0.75,1.65-1.66,1.65
			h-17.23c-0.91,0-1.66-0.74-1.66-1.65v-11.81c0-0.91,0.75-1.65,1.66-1.65H329.02z M293.08,576.87v-13.25h15.72v4.97
			c0,1.64,1.33,2.97,2.98,2.97h7.68v8.92H296.7C294.7,580.48,293.08,578.86,293.08,576.87z M348.55,576.87c0,2-1.62,3.61-3.61,3.61
			h-23.6v-8.92h7.68c1.65,0,2.98-1.33,2.98-2.97v-4.97h16.55V576.87z M348.55,561.74H332v-4.97c0-1.64-1.33-2.97-2.98-2.97h-7.68
			v-8.92h23.6c1.99,0,3.61,1.62,3.61,3.61V561.74z"/>
		<path d="M520.79,579.27c-23,0-41.71-18.71-41.71-41.71c0-23,18.71-41.71,41.71-41.71c23,0,41.71,18.71,41.71,41.71
			C562.5,560.56,543.79,579.27,520.79,579.27z M520.79,500.48c-20.45,0-37.08,16.64-37.08,37.08s16.64,37.08,37.08,37.08
			c20.45,0,37.08-16.63,37.08-37.08S541.24,500.48,520.79,500.48z"/>
		<path d="M328.16,624.34h-39.7c-1.28,0-2.31-1.04-2.31-2.31s1.04-2.31,2.31-2.31h39.7c1.28,0,2.31,1.04,2.31,2.31
			S329.44,624.34,328.16,624.34z"/>
		<path d="M520.79,655.63H288.46c-1.28,0-2.31-1.04-2.31-2.31s1.04-2.31,2.31-2.31h232.34c1.28,0,2.31,1.04,2.31,2.31
			S522.07,655.63,520.79,655.63z"/>
		<path d="M392.17,624.34h-39.7c-1.28,0-2.31-1.04-2.31-2.31s1.04-2.31,2.31-2.31h39.7c1.28,0,2.31,1.04,2.31,2.31
			S393.44,624.34,392.17,624.34z"/>
		<path d="M456.17,624.34h-39.7c-1.28,0-2.31-1.04-2.31-2.31s1.04-2.31,2.31-2.31h39.7c1.28,0,2.31,1.04,2.31,2.31
			S457.45,624.34,456.17,624.34z"/>
		<path d="M520.18,624.34h-39.7c-1.28,0-2.31-1.04-2.31-2.31s1.04-2.31,2.31-2.31h39.7c1.28,0,2.31,1.04,2.31,2.31
			S521.45,624.34,520.18,624.34z"/>
	</g>
</g>
</svg>
