<?xml version="1.0" encoding="utf-8"?>
<!-- Generator: Adobe Illustrator 24.1.2, SVG Export Plug-In . SVG Version: 6.00 Build 0)  -->
<svg version="1.1" id="Layer_1" xmlns="http://www.w3.org/2000/svg" xmlns:xlink="http://www.w3.org/1999/xlink" x="0px" y="0px"
	 viewBox="0 0 1024 1024" style="enable-background:new 0 0 1024 1024;" xml:space="preserve">
<style type="text/css">
	.st0{fill:#FFFFFF;}
</style>
<g>
	<g>
		<path d="M755.42,694.57V404.39H268.58v290.19h-27.84v25.8h542.52v-25.8H755.42z M273.86,409.66h476.27v284.25H273.86V409.66z
			 M779.3,716.41H244.7v-17.88h534.6V716.41z"/>
		<rect x="273.86" y="409.66" class="st0" width="476.27" height="284.25"/>
	</g>
	<path d="M780.25,408.92h-537v-41.28h537V408.92z M248.53,403.64h526.44v-30.73H248.53V403.64z"/>
	<path d="M711.66,372.91H311.34v-41.14c0-15.52,12.62-28.14,28.14-28.14h344.03c15.52,0,28.14,12.62,28.14,28.14V372.91z
		 M316.62,367.64h389.76v-35.86c0-12.61-10.26-22.86-22.86-22.86H339.48c-12.61,0-22.86,10.26-22.86,22.86V367.64z"/>
	<path d="M554.5,347.43H313.48v-13.66H554.5V347.43z M314.47,346.44h239.03v-11.68H314.47V346.44z"/>
	<path d="M709.51,347.43H566.18v-18.99h143.34V347.43z M567.17,346.44h141.36v-17.01H567.17V346.44z"/>
	<g>
		<path d="M267.64,457.91l-19.15-19.15V404.3h38.79v33.97L267.64,457.91z M252.45,437.13l15.19,15.19l15.69-15.69v-28.37h-30.88
			V437.13z"/>
		<path d="M302.48,457.91l-19.15-19.15V404.3h38.8v33.97L302.48,457.91z M287.29,437.13l15.19,15.19l15.69-15.69v-28.37h-30.88
			V437.13z"/>
		<path d="M337.32,457.91l-19.15-19.15V404.3h38.79v33.97L337.32,457.91z M322.13,437.13l15.19,15.19L353,436.63v-28.37h-30.88
			V437.13z"/>
		<path d="M372.15,457.91L353,438.77V404.3h38.8v33.97L372.15,457.91z M356.96,437.13l15.19,15.19l15.69-15.69v-28.37h-30.88V437.13
			z"/>
		<path d="M406.99,457.91l-19.15-19.15V404.3h38.8v33.97L406.99,457.91z M391.8,437.13l15.19,15.19l15.69-15.69v-28.37H391.8V437.13
			z"/>
		<path d="M441.82,457.91l-19.15-19.15V404.3h38.79v33.97L441.82,457.91z M426.64,437.13l15.19,15.19l15.69-15.69v-28.37h-30.88
			V437.13z"/>
		<path d="M476.66,457.91l-19.15-19.15V404.3h38.8v33.97L476.66,457.91z M461.47,437.13l15.19,15.19l15.69-15.69v-28.37h-30.88
			V437.13z"/>
		<path d="M511.5,457.91l-19.15-19.15V404.3h38.79v33.97L511.5,457.91z M496.31,437.13l15.19,15.19l15.69-15.69v-28.37h-30.88
			V437.13z"/>
		<path d="M546.33,457.91l-19.15-19.15V404.3h38.8v33.97L546.33,457.91z M531.15,437.13l15.19,15.19l15.69-15.69v-28.37h-30.88
			V437.13z"/>
		<path d="M581.17,457.91l-19.15-19.15V404.3h38.8v33.97L581.17,457.91z M565.98,437.13l15.19,15.19l15.69-15.69v-28.37h-30.88
			V437.13z"/>
		<path d="M616.01,457.91l-19.15-19.15V404.3h38.79v33.97L616.01,457.91z M600.82,437.13l15.19,15.19l15.69-15.69v-28.37h-30.88
			V437.13z"/>
		<path d="M650.85,457.91l-19.15-19.15V404.3h38.8v33.97L650.85,457.91z M635.66,437.13l15.19,15.19l15.69-15.69v-28.37h-30.88
			V437.13z"/>
		<path d="M685.68,457.91l-19.15-19.15V404.3h38.79v33.97L685.68,457.91z M670.49,437.13l15.19,15.19l15.69-15.69v-28.37h-30.88
			V437.13z"/>
		<path d="M720.52,457.91l-19.15-19.15V404.3h38.8v33.97L720.52,457.91z M705.33,437.13l15.19,15.19l15.69-15.69v-28.37h-30.88
			V437.13z"/>
		<path d="M755.36,457.91l-19.15-19.15V404.3H775v33.97L755.36,457.91z M740.17,437.13l15.19,15.19l15.69-15.69v-28.37h-30.88
			V437.13z"/>
	</g>
	<path d="M544.15,604.82h-10.17V488.3H311v116.52h-10.75v22.79h244.49v-22.16L544.15,604.82z M314.96,492.26h215.06v112.56h-4.04
		V499.31H318.16v105.51h-3.21V492.26z M353.17,503.26h25.27l93.7,101.55h-25.28L353.17,503.26z M441.48,604.82H322.12V503.26h25.65
		L441.48,604.82z M383.84,503.26h11.94l93.7,101.55h-11.94L383.84,503.26z M401.16,503.26h49.29l71.57,77.58v23.98h-27.16
		L401.16,503.26z M455.85,503.26h66.18v71.72L455.85,503.26z M540.77,623.65H304.2v-14.87h236.57V623.65z"/>
	<g>
		<path d="M706.65,697.12H580.1V494.47h126.55V697.12z M582.74,694.49h121.27V497.11H582.74V694.49z"/>
		<path d="M698.34,685.12H589.69V506.47h108.65V685.12z M592.33,682.48H695.7V509.11H592.33V682.48z"/>
		<path d="M642.21,558.61h-48.24v-48.24h48.24V558.61z M595.29,557.29h45.6v-45.6h-45.6V557.29z"/>
		<path d="M694.05,558.61h-48.24v-48.24h48.24V558.61z M647.14,557.29h45.6v-45.6h-45.6V557.29z"/>
		<path d="M642.21,612.21h-48.24v-48.24h48.24V612.21z M595.29,610.89h45.6v-45.6h-45.6V610.89z"/>
		<path d="M694.05,612.21h-48.24v-48.24h48.24V612.21z M647.14,610.89h45.6v-45.6h-45.6V610.89z"/>
		<path d="M642.21,665.8h-48.24v-48.24h48.24V665.8z M595.29,664.48h45.6v-45.6h-45.6V664.48z"/>
		<path d="M694.05,665.8h-48.24v-48.24h48.24V665.8z M647.14,664.48h45.6v-45.6h-45.6V664.48z"/>
		<path d="M694.05,679.96H593.97v-9.23h100.08V679.96z M595.29,678.64h97.44v-6.59h-97.44V678.64z"/>
		<path d="M608.83,604.62h-12.14v-27.64h12.14V604.62z M599.33,601.98h6.86v-22.36h-6.86V601.98z"/>
	</g>
</g>
</svg>
